Coordinates
version=1
nRows=14
nColumns=36
inDegrees=yes

Units are S.I. units (second, meters, Newtons, ...)
If the header above contains a line with 'inDegrees', this indicates whether rotational values are in degrees (yes) or radians (no).

endheader
time	pelvis_tilt	pelvis_list	pelvis_rotation	pelvis_tx	pelvis_ty	pelvis_tz	hip_flexion_r	hip_adduction_r	hip_rotation_r	knee_angle_r	knee_angle_r_beta	ankle_angle_r	subtalar_angle_r	mtp_angle_r	hip_flexion_l	hip_adduction_l	hip_rotation_l	knee_angle_l	knee_angle_l_beta	ankle_angle_l	subtalar_angle_l	mtp_angle_l	lumbar_extension	lumbar_bending	lumbar_rotation	arm_flex_r	arm_add_r	arm_rot_r	elbow_flex_r	pro_sup_r	arm_flex_l	arm_add_l	arm_rot_l	elbow_flex_l	pro_sup_l
      2.50000000	    -15.00592966	     -3.03824116	     11.65822196	      0.56912725	      0.69490652	      0.13188120	     78.69552397	     -4.68589512	      5.39268984	     84.47040481	      1.47428668	     27.00042174	     -6.33283094	     -7.49999987	     78.26600795	    -12.29417938	      1.89683287	     80.86904502	      1.41143110	     20.38531897	    -14.16319883	     -7.49999987	    -28.96965536	     -5.30788422	      3.20471290	     29.17949252	    -19.32738172	      7.71904543	     97.32424615	     88.73932921	     32.42956077	    -25.33124349	     14.51688282	     91.94396668	     89.72789398
      2.51666670	    -16.84574288	     -3.17598180	     11.48648350	      0.56863866	      0.67697675	      0.13178807	     82.65496979	     -4.90521089	      5.47991248	     87.92894595	      1.53464961	     28.87255266	     -6.23311824	     -7.49999987	     82.13311605	    -12.71472900	      1.99301251	     84.24548161	      1.47036103	     22.34018498	    -14.04246534	     -7.49999987	    -29.01845761	     -5.42290774	      2.95726566	     33.45078656	    -19.88370726	      7.62977191	    100.71456189	     89.12603430	     36.39163313	    -26.85496353	     15.77040370	     93.95059200	     89.32145559
      2.53333330	    -18.61042914	     -3.31029762	     11.15281274	      0.57660189	      0.65677352	      0.12342127	     86.38501640	     -5.09995996	      5.57321081	     90.97342795	      1.58778585	     30.42280484	     -5.96692754	     -7.49999987	     85.74815141	    -13.13554350	      2.10254594	     87.32487875	      1.52410665	     23.82861217	    -13.99905020	     -7.49999987	    -28.68294650	     -5.44430058	      3.44391737	     37.37265041	    -22.13653202	      8.07857453	    103.54932044	     90.73926341	     39.98117668	    -26.90613825	     15.62979212	     97.22412034	     90.79541471
      2.55000000	    -20.24980838	     -3.46187884	     10.93387025	      0.58112698	      0.64754711	      0.12119513	     89.35757172	     -5.34504590	      5.62475545	     93.16288405	      1.62599907	     31.59701908	     -5.81931228	     -7.49999987	     88.71012005	    -13.37083898	      2.16567097	     89.70068599	      1.56557231	     25.16161636	    -13.80262022	     -7.49999987	    -28.58888741	     -5.43290077	      3.56697732	     41.20330568	    -23.82350448	      8.25957283	    103.70139680	     90.57962286	     43.75003263	    -27.08059039	     16.52437697	     99.59920789	     90.73673152
      2.56666670	    -21.77715003	     -3.59629201	     10.78799590	      0.57832597	      0.62735740	      0.12465701	     92.47822124	     -5.48195978	      5.74405445	     95.39005011	      1.66487045	     32.21677433	     -5.98452445	     -7.49999987	     91.76938708	    -13.63383734	      2.24789661	     92.03680138	      1.60634522	     25.90844693	    -13.80186269	     -7.49999987	    -28.11949223	     -5.59800259	      3.50160169	     45.36399252	    -25.02905037	      8.66601038	    105.54927239	     89.30232652	     47.57168631	    -28.71520528	     18.41382527	    103.15545113	     89.77380272
      2.58333330	    -23.23777514	     -3.78159628	     10.75351247	      0.58288291	      0.61360312	      0.12127689	     95.40993539	     -5.75533346	      5.84028456	     97.47969839	      1.70134169	     32.86973693	     -6.00897202	     -7.49999987	     94.70643417	    -13.75028707	      2.42070554	     94.21867158	      1.64442604	     26.46244433	    -13.91371864	     -7.49999987	    -27.48128375	     -5.60718021	      3.21213952	     48.69673281	    -25.69730126	      9.32532956	    106.62138763	     85.19144314	     50.87886483	    -29.71406441	     19.33941238	    105.72322567	     87.78155200
      2.60000000	    -24.66002179	     -4.00684413	     10.83987500	      0.57988241	      0.60522072	      0.11760348	     98.08316734	     -6.18192928	      5.94197072	     99.19711901	      1.73131634	     33.22075540	     -6.09696289	     -7.49999987	     97.44820472	    -13.69779868	      2.55412799	     96.10774405	      1.67739657	     26.78356613	    -14.03506454	     -7.49999987	    -27.43465064	     -5.43165538	      3.22668361	     51.91157766	    -26.96490631	     10.70128755	    106.45540596	     84.83944563	     54.17459701	    -30.10761473	     20.94529578	    106.26944788	     87.85664123
      2.61666670	    -25.98140716	     -4.39207728	     10.91608251	      0.59067627	      0.60019552	      0.12300134	    100.22701225	     -6.41603827	      5.90665567	    100.57534538	      1.75537092	     33.61235549	     -6.10533329	     -7.49999987	     99.73578242	    -13.70860484	      2.90385857	     97.57696239	      1.70303927	     27.05020028	    -14.05377152	     -7.49999987	    -27.29837934	     -5.49632437	      3.40955392	     52.10867667	    -27.45819945	     11.42074187	    107.13425449	     84.55438079	     54.98475357	    -30.51769835	     21.00235261	    107.10240545	     87.84285306
      2.63333330	    -27.00977401	     -4.80594477	     11.03932115	      0.59225936	      0.59858272	      0.12284527	    101.61537556	     -6.58365893	      5.78815894	    101.46316222	      1.77086625	     33.89952869	     -6.23538605	     -7.49999987	    101.33450150	    -13.71881460	      3.21271258	     98.54780388	      1.71998365	     27.35823064	    -13.95746231	     -7.49999987	    -27.36275546	     -5.45300396	      3.74200021	     53.95924728	    -27.62819764	     11.89343513	    106.98578758	     84.14054832	     56.89995013	    -30.14948507	     21.28338665	    108.07167900	     87.80972735
      2.65000000	    -27.70801571	     -5.09813939	     11.23049708	      0.59061670	      0.59384170	      0.11666782	    102.53448610	     -6.84417093	      5.77024684	    102.09635702	      1.78191758	     34.02577680	     -6.32091861	     -7.49999987	    102.37569326	    -13.64555248	      3.30377819	     99.25457873	      1.73231920	     27.64111792	    -13.89559103	     -7.49999987	    -27.70718262	     -5.11551352	      3.86927275	     56.52849924	    -28.30127983	     13.04382371	    105.95588788	     83.57444355	     60.52940717	    -29.34884034	     22.61762623	    107.94025182	     88.02493189
      2.66666670	    -28.37596845	     -5.40439115	     11.40017136	      0.59827591	      0.58735956	      0.11885493	    103.32647212	     -7.02939326	      5.79580659	    102.72232674	      1.79284282	     34.23370159	     -6.31248820	     -7.49999987	    103.28328571	    -13.52093630	      3.50482216	     99.88107048	      1.74325354	     27.99550900	    -13.77375010	     -7.49999987	    -27.43430584	     -4.89717597	      3.79245109	     56.68537998	    -28.04822973	     12.87074543	    106.89218889	     83.10448902	     62.07691883	    -28.92661040	     23.22047994	    108.94579442	     88.24476703
      2.68333330	    -29.09013951	     -5.62448789	     11.57114421	      0.59143903	      0.57956670	      0.11579622	    104.30317086	     -7.29599381	      5.87207104	    103.35967277	      1.80396660	     34.33752388	     -6.42371338	     -7.49999987	    104.31925740	    -13.46836174	      3.49105307	    100.55492326	      1.75501449	     28.33280956	    -13.69952318	     -7.49999987	    -27.47826668	     -4.75464343	      3.69217332	     57.73790645	    -28.56822694	     12.46394288	    107.53892520	     82.43654592	     63.76928018	    -28.79416568	     24.52607830	    110.28383688	     88.54791278
      2.70000000	    -29.52831545	     -5.89172097	     11.74034474	      0.59560087	      0.57125897	      0.12001864	    105.18475233	     -7.51162845	      5.83020237	    104.14566316	      1.81768472	     34.39372514	     -6.38993837	     -7.49999987	    105.30884253	    -13.42542463	      3.66248265	    101.34436684	      1.76879288	     28.53270853	    -13.80848141	     -7.49999987	    -27.24956453	     -4.70940340	      3.55267403	     58.03893176	    -28.34589898	     12.45176901	    107.67116564	     82.26230438	     64.78637400	    -28.62475441	     24.58168024	    110.59514427	     88.58491286
      2.71666670	    -30.19450659	     -6.20620529	     11.95244567	      0.59915468	      0.57419825	      0.11713582	    105.99441416	     -7.84289423	      5.77553445	    104.65091356	      1.82650301	     34.68700912	     -6.15484427	     -7.49999987	    106.27557115	    -13.23850816	      3.77512907	    101.85960128	      1.77778542	     28.95658887	    -13.65126239	     -7.49999987	    -26.89045326	     -4.50493584	      3.42641774	     57.58842610	    -28.54042821	     12.28679523	    107.02217398	     81.89392664	     64.50180537	    -28.50878124	     25.36433630	    110.55830073	     88.71771649
